name analog
datacolumns 19
datarows 31
range 0.25049999999999994 0.26549999999999996
endheader
time	ground_force_vx	ground_force_vy	ground_force_vz	ground_force_px	ground_force_py	ground_force_pz	l_ground_force_vx	l_ground_force_vy	l_ground_force_vz	l_ground_force_px	l_ground_force_py	l_ground_force_pz	ground_torque_x	ground_torque_y	ground_torque_z	l_ground_torque_x	l_ground_torque_y	l_ground_torque_z
0.25049999999999994	-0.0	-0.0	-0.0	-6.249361515045166	44.40568923950195	-382.2892761230469	-8.259381294250488	-36.09585952758789	-332.5018920898437	-0.0	-0.0	-0.0	-0.0	-0.0	-0.0	75254.296875	-19954.62890625	-44.70645904541016
0.25099999999999995	-0.0	-0.0	-0.0	-6.08515739440918	44.22750473022461	-383.2923278808594	-8.549052238464355	-35.95620346069336	-333.1273193359375	-0.0	-0.0	-0.0	-0.0	-0.0	-0.0	75108.0859375	-19952.306640625	-204.17079162597656
0.25149999999999995	-0.0	-0.0	-0.0	-5.910891056060791	43.92238998413086	-384.42572021484375	-8.06814956665039	-35.64020538330078	-334.0644836425781	-0.0	-0.0	-0.0	-0.0	-0.0	-0.0	75223.3125	-20011.228515625	-17.918291091918945
0.25199999999999995	-0.0	-0.0	-0.0	-5.441841125488281	43.495635986328125	-382.0655822753906	-8.012109756469727	-35.858604431152344	-333.66131591796875	-0.0	-0.0	-0.0	-0.0	-0.0	-0.0	75197.0078125	-19922.607421875	-94.38906860351562
0.25249999999999995	-0.0	-0.0	-0.0	-4.775773525238037	43.34592056274414	-381.1188659667969	-8.446358680725098	-35.612396240234375	-333.2388916015625	-0.0	-0.0	-0.0	-0.0	-0.0	-0.0	75346.203125	-19992.623046875	-38.41866683959961
0.25299999999999995	-0.0	-0.0	-0.0	-4.390437126159668	43.078643798828125	-379.706298828125	-8.5162353515625	-35.495906829833984	-332.7787170410156	-0.0	-0.0	-0.0	-0.0	-0.0	-0.0	75287.4765625	-19886.484375	-21.395750045776367
0.25349999999999995	-0.0	-0.0	-0.0	-4.043223857879639	42.327369689941406	-381.3204956054688	-8.693656921386719	-34.817623138427734	-334.2127380371094	-0.0	-0.0	-0.0	-0.0	-0.0	-0.0	75545.8125	-20284.517578125	37.96083068847656
0.25399999999999995	-0.0	-0.0	-0.0	-3.925262451171875	41.50331878662109	-378.0168151855469	-8.437043190002441	-34.86811828613281	-333.9013366699219	-0.0	-0.0	-0.0	-0.0	-0.0	-0.0	75767.578125	-20426.173828125	8.44139575958252
0.25449999999999995	-0.0	-0.0	-0.0	-3.657630920410156	41.534767150878906	-377.7495727539063	-7.933483600616455	-34.60307312011719	-335.88385009765625	-0.0	-0.0	-0.0	-0.0	-0.0	-0.0	75806.09375	-20447.859375	121.10713958740234
0.25499999999999995	-0.0	-0.0	-0.0	-3.3415653705596924	41.546478271484375	-377.3576354980469	-8.221363067626953	-34.09217071533203	-334.4872436523437	-0.0	-0.0	-0.0	-0.0	-0.0	-0.0	76010.5	-20742.490234375	116.96363067626952
0.25549999999999995	-0.0	-0.0	-0.0	-3.56842041015625	41.24795150756836	-374.0945739746094	-7.372611045837402	-34.07302474975586	-334.5629272460937	-0.0	-0.0	-0.0	-0.0	-0.0	-0.0	76480.4375	-20714.50390625	388.5367126464844
0.25599999999999995	-0.0	-0.0	-0.0	-3.250622272491455	40.68383407592773	-371.5066528320313	-6.850037097930908	-33.886695861816406	-335.0715637207031	-0.0	-0.0	-0.0	-0.0	-0.0	-0.0	76425.859375	-20944.8125	431.4816284179688
0.25649999999999995	-0.0	-0.0	-0.0	-3.132166624069214	40.34670639038086	-371.9372863769531	-6.782275676727295	-33.533294677734375	-333.865234375	-0.0	-0.0	-0.0	-0.0	-0.0	-0.0	76309.3984375	-21277.697265625	629.546142578125
0.25699999999999995	-0.0	-0.0	-0.0	-3.4693849086761475	40.68351745605469	-369.1508483886719	-6.31790018081665	-33.767906188964844	-336.4291687011719	-0.0	-0.0	-0.0	-0.0	-0.0	-0.0	76772.828125	-21529.447265625	722.031982421875
0.25749999999999995	-0.0	-0.0	-0.0	-3.4195878505706787	39.97028350830078	-368.48382568359375	-5.893930435180664	-33.700035095214844	-335.61151123046875	-0.0	-0.0	-0.0	-0.0	-0.0	-0.0	76738.5234375	-21738.19921875	817.841552734375
0.25799999999999995	-0.0	-0.0	-0.0	-3.667531490325928	39.76205062866211	-366.56158447265625	-5.203978538513184	-33.66031646728516	-336.50506591796875	-0.0	-0.0	-0.0	-0.0	-0.0	-0.0	77015.4921875	-22055.779296875	1032.539306640625
0.25849999999999995	-0.0	-0.0	-0.0	-3.627850294113159	39.217376708984375	-364.3643493652344	-4.948167324066162	-33.61111831665039	-336.8927001953125	-0.0	-0.0	-0.0	-0.0	-0.0	-0.0	76976.2109375	-22073.67578125	1141.55810546875
0.25899999999999995	-0.0	-0.0	-0.0	-3.736876964569092	39.37572479248047	-364.13037109375	-4.10040807723999	-33.876277923583984	-337.202880859375	-0.0	-0.0	-0.0	-0.0	-0.0	-0.0	77409.2734375	-22511.54296875	1366.2080078125
0.25949999999999995	-0.0	-0.0	-0.0	-4.172889232635498	39.05910110473633	-362.9897766113281	-3.982091903686523	-33.82720947265625	-337.3583374023437	-0.0	-0.0	-0.0	-0.0	-0.0	-0.0	77619.3203125	-22711.814453125	1580.5091552734375
0.25999999999999995	-0.0	-0.0	-0.0	-4.153827667236328	38.50433349609375	-357.8548278808594	-2.6420509815216064	-33.77838897705078	-337.7857971191406	-0.0	-0.0	-0.0	-0.0	-0.0	-0.0	77939.609375	-23076.984375	1772.70068359375
0.26049999999999995	-0.0	-0.0	-0.0	-3.5986199378967285	38.038570404052734	-359.10430908203125	-2.158930540084839	-34.12101364135742	-339.99530029296875	-0.0	-0.0	-0.0	-0.0	-0.0	-0.0	78238.921875	-23450.3125	1921.2899169921875
0.26099999999999995	-0.0	-0.0	-0.0	-4.063266754150391	37.355735778808594	-357.1849365234375	-2.060337543487549	-34.15064239501953	-342.5521850585937	-0.0	-0.0	-0.0	-0.0	-0.0	-0.0	78763.0546875	-23444.92578125	2096.007080078125
0.26149999999999995	-0.0	-0.0	-0.0	-3.795544862747192	37.17749786376953	-355.9252014160156	-1.9816887378692627	-34.4155387878418	-342.5966186523437	-0.0	-0.0	-0.0	-0.0	-0.0	-0.0	78866.0703125	-23808.43359375	2306.51123046875
0.26199999999999996	-0.0	-0.0	-0.0	-3.588749408721924	37.13691329956055	-355.6119689941406	-1.3525521755218506	-34.632110595703125	-344.1843566894531	-0.0	-0.0	-0.0	-0.0	-0.0	-0.0	79348.8125	-24128.84375	2251.432861328125
0.26249999999999996	-0.0	-0.0	-0.0	-3.469007730484009	36.44414520263672	-356.42901611328125	-1.4294646978378296	-34.75061798095703	-344.6921081542969	-0.0	-0.0	-0.0	-0.0	-0.0	-0.0	79861.390625	-24719.916015625	2435.3984375
0.26299999999999996	-0.0	-0.0	-0.0	-3.468980073928833	36.23519515991211	-356.3180847167969	-1.4598512649536133	-34.97538757324219	-347.9448547363281	-0.0	-0.0	-0.0	-0.0	-0.0	-0.0	80623.1328125	-24928.32421875	2636.154296875
0.26349999999999996	-0.0	-0.0	-0.0	-3.170513153076172	36.217716217041016	-356.0460205078125	-1.49792742729187	-35.20258712768555	-349.6206970214844	-0.0	-0.0	-0.0	-0.0	-0.0	-0.0	80814.078125	-25175.94140625	2563.972412109375
0.26399999999999996	-0.0	-0.0	-0.0	-2.1787428855896	35.62480163574219	-356.7525329589844	-1.3000816106796265	-35.83830642700195	-351.01776123046875	-0.0	-0.0	-0.0	-0.0	-0.0	-0.0	81289.5546875	-25551.771484375	2646.101806640625
0.26449999999999996	-0.0	-0.0	-0.0	-1.290313959121704	35.9195556640625	-357.9454040527344	-1.112316608428955	-35.5427131652832	-351.985107421875	-0.0	-0.0	-0.0	-0.0	-0.0	-0.0	81377.875	-25657.390625	2581.2158203125
0.26499999999999996	-0.0	-0.0	-0.0	-0.8651036024093628	35.21686935424805	-355.6111755371094	-0.4640683531761169	-35.671749114990234	-352.7904663085937	-0.0	-0.0	-0.0	-0.0	-0.0	-0.0	81730.953125	-25802.515625	2732.21533203125
0.26549999999999996	-0.0	-0.0	-0.0	-0.7240899801254272	35.175323486328125	-357.8360900878906	-0.6479179859161377	-35.61021423339844	-353.7716369628906	-0.0	-0.0	-0.0	-0.0	-0.0	-0.0	82129.171875	-25660.6796875	2740.240478515625
